<?xml version="1.0" encoding="UTF-8" standalone="no"?>
<!DOCTYPE svg PUBLIC "-//W3C//DTD SVG 1.1//EN" "http://www.w3.org/Graphics/SVG/1.1/DTD/svg11.dtd">
<svg version="1.1" xmlns="http://www.w3.org/2000/svg" xmlns:xlink="http://www.w3.org/1999/xlink" preserveAspectRatio="xMidYMid meet" viewBox="0 0 1500 499" width="1500" height="499"><defs><path d="M0 0L1500 0L1500 499L0 499L0 0Z" id="b4Tc9qRymR"></path><linearGradient id="gradientb4D7hEhs7E" gradientUnits="userSpaceOnUse" x1="750" y1="0" x2="750" y2="499"><stop style="stop-color: #79d3fb;stop-opacity: 1" offset="0%"></stop><stop style="stop-color: #7dfff9;stop-opacity: 1" offset="100%"></stop></linearGradient><path d="M0 370.72L1190.13 370.72L1190.13 499L0 499L0 370.72Z" id="a1wl0Fl9zN"></path><linearGradient id="gradientafpHtLyI2" gradientUnits="userSpaceOnUse" x1="595.06" y1="370.72" x2="595.06" y2="499"><stop style="stop-color: #abf3f5;stop-opacity: 1" offset="0%"></stop><stop style="stop-color: #3e5878;stop-opacity: 1" offset="100%"></stop></linearGradient><path d="M0 499L247.83 433.32C213.79 422.06 178.41 405.9 141.68 384.85C104.96 363.79 57.73 349 0 340.47L0 499Z" id="a1bgZSpMLc"></path><linearGradient id="gradientbHnAgj7zq" gradientUnits="userSpaceOnUse" x1="123.91" y1="340.47" x2="123.91" y2="499"><stop style="stop-color: #9effa1;stop-opacity: 1" offset="0%"></stop><stop style="stop-color: #58965a;stop-opacity: 1" offset="100%"></stop></linearGradient><path d="M1500 499L1500 400.64C1381.61 334.03 1254.78 300.72 1119.52 300.72C984.26 300.72 837.58 347.89 679.49 442.22L1500 499Z" id="b3GOwKJSs"></path><linearGradient id="gradientazDg9cO7d" gradientUnits="userSpaceOnUse" x1="1089.75" y1="300.72" x2="1089.75" y2="499"><stop style="stop-color: #61d765;stop-opacity: 1" offset="0%"></stop><stop style="stop-color: #2d6b2f;stop-opacity: 1" offset="100%"></stop></linearGradient><path d="M1500 499C952.92 442.88 606.08 414.43 459.49 413.63C312.89 412.83 159.73 422.41 0 442.37L0 499" id="a52cP59P0P"></path><linearGradient id="gradientb8b2ZKEiF" gradientUnits="userSpaceOnUse" x1="750" y1="413.58" x2="750" y2="499"><stop style="stop-color: #87ff8b;stop-opacity: 1" offset="0%"></stop><stop style="stop-color: #42b946;stop-opacity: 1" offset="100%"></stop></linearGradient><path d="M926.28 331C1065.07 354.02 1137.54 367.91 1143.67 372.66C1152.87 379.78 1142.47 408.33 1152.47 416.32C1162.47 424.32 1220.59 442.55 1308.47 459.03C1367.06 470.02 1430.9 478.76 1500 485.25L1500 499L1305.27 479.58L1072.23 457.18L1301.27 467.83C1195.41 443.97 1139.94 428.23 1134.87 420.63C1127.27 409.23 1139.47 387.43 1130.07 380.63C1123.81 376.1 1048.66 361.8 904.62 337.74L926.28 331Z" id="a4ufHsyfsO"></path><path d="M216.59 493.77L217.88 491.23L215.85 485.22L219.19 488.66L220.93 485.22L220.93 490.45L229.25 499L206.37 499L211.84 487.07L216.59 493.77ZM201.37 488.45L198.45 494.27L199.54 495.39L209.07 488.45L206.06 499L184.12 499L192.69 493.76L189.61 485.22L195.99 491.74L201.37 488.45Z" id="b1S4xJj1aQ"></path><linearGradient id="gradientaVBOm8WW6" gradientUnits="userSpaceOnUse" x1="206.69" y1="485.22" x2="206.69" y2="499"><stop style="stop-color: #a6f283;stop-opacity: 1" offset="0%"></stop><stop style="stop-color: #3e9351;stop-opacity: 1" offset="100%"></stop></linearGradient><path d="M238.15 499L227.18 498.94L216.94 499L217 498.94L213.95 498.94L210.94 488.39L220.74 495.1L222.43 493.36L218.65 488.39L224.28 491.45L230.4 485.16L228.68 493.85L238.15 499ZM199.08 485.16L201.48 487.95L204.16 485.16L203.24 489.99L205.32 492.4L208.18 487L208.18 495.72L210.94 498.94L190.9 498.94L199.41 490.1L199.08 485.16Z" id="bFarWT2F3"></path><linearGradient id="gradientauFTmNQX5" gradientUnits="userSpaceOnUse" x1="214.53" y1="485.16" x2="214.53" y2="499"><stop style="stop-color: #8bd26a;stop-opacity: 1" offset="0%"></stop><stop style="stop-color: #74b356;stop-opacity: 1" offset="100%"></stop></linearGradient><path d="" id="b2VyDM3ibA"></path><path d="M926.39 331.51L925.08 330.83L914.46 333.94L905.09 337.05L906.81 337.6L926.39 331.51Z" id="c12GqDxlWj"></path></defs><g><g><g><use xlink:href="#b4Tc9qRymR" opacity="1" fill="url(#gradientb4D7hEhs7E)"></use></g><g><use xlink:href="#a1wl0Fl9zN" opacity="1" fill="url(#gradientafpHtLyI2)"></use></g><g><use xlink:href="#a1bgZSpMLc" opacity="1" fill="url(#gradientbHnAgj7zq)"></use><g><use xlink:href="#a1bgZSpMLc" opacity="1" fill-opacity="0" stroke="#000000" stroke-width="0" stroke-opacity="1"></use></g></g><g><use xlink:href="#b3GOwKJSs" opacity="1" fill="url(#gradientazDg9cO7d)"></use><g><use xlink:href="#b3GOwKJSs" opacity="1" fill-opacity="0" stroke="#000000" stroke-width="0" stroke-opacity="1"></use></g></g><g><use xlink:href="#a52cP59P0P" opacity="1" fill="url(#gradientb8b2ZKEiF)"></use><g><use xlink:href="#a52cP59P0P" opacity="1" fill-opacity="0" stroke="#000000" stroke-width="0" stroke-opacity="1"></use></g></g><g><use xlink:href="#a4ufHsyfsO" opacity="1" fill="#b0b0b0" fill-opacity="1"></use><g><use xlink:href="#a4ufHsyfsO" opacity="1" fill-opacity="0" stroke="#ffffff" stroke-width="1" stroke-opacity="1"></use></g></g><g><use xlink:href="#b1S4xJj1aQ" opacity="1" fill="url(#gradientaVBOm8WW6)"></use><g><use xlink:href="#b1S4xJj1aQ" opacity="1" fill-opacity="0" stroke="#806464" stroke-width="0" stroke-opacity="1"></use></g></g><g><use xlink:href="#bFarWT2F3" opacity="1" fill="url(#gradientauFTmNQX5)"></use><g><use xlink:href="#bFarWT2F3" opacity="1" fill-opacity="0" stroke="#806464" stroke-width="0" stroke-opacity="1"></use></g></g><g><g><use xlink:href="#b2VyDM3ibA" opacity="1" fill-opacity="0" stroke="#000000" stroke-width="1" stroke-opacity="1"></use></g></g><g><use xlink:href="#c12GqDxlWj" opacity="1" fill="#b0b0b0" fill-opacity="1"></use><g><use xlink:href="#c12GqDxlWj" opacity="1" fill-opacity="0" stroke="#000000" stroke-width="0" stroke-opacity="1"></use></g></g></g></g></svg>